<?xml version="1.0" encoding="utf-8"?>
<!-- Generator: Adobe Illustrator 27.9.0, SVG Export Plug-In . SVG Version: 6.00 Build 0)  -->
<svg version="1.1" id="AllocationRule" xmlns="http://www.w3.org/2000/svg" xmlns:xlink="http://www.w3.org/1999/xlink" x="0px"
	 y="0px" width="14px" height="14px" viewBox="0 0 14 14" enable-background="new 0 0 14 14" xml:space="preserve">
<g>
	<path fill="#837CFF" d="M11,4h2c0.552,0,1-0.448,1-1V1c0-0.552-0.448-1-1-1h-2c-0.552,0-1,0.448-1,1v0.25L7,3.5V1
		c0-0.552-0.448-1-1-1H1C0.448,0,0,0.448,0,1v12c0,0.552,0.448,1,1,1h5c0.552,0,1-0.448,1-1v-2.5l3,2.25V13c0,0.552,0.448,1,1,1h2
		c0.552,0,1-0.448,1-1v-2c0-0.552-0.448-1-1-1h-2c-0.552,0-1,0.448-1,1v0.5L7,9.25V7.5h3V8c0,0.552,0.448,1,1,1h2
		c0.552,0,1-0.448,1-1V6c0-0.552-0.448-1-1-1h-2c-0.552,0-1,0.448-1,1v0.5H7V4.75l3-2.25V3C10,3.552,10.448,4,11,4z M11,1h2v2h-2V1z
		 M6,13H1V1h5V13z M11,11h2v2h-2V11z M11,6h2v2h-2V6z"/>
	<rect x="2" y="3" fill="#837CFF" width="3" height="1"/>
	<rect x="2" y="6" fill="#837CFF" width="3" height="1"/>
	<rect x="2" y="9" fill="#837CFF" width="3" height="1"/>
</g>
</svg>
