<?xml version="1.0" encoding="utf-8"?>
<!-- Generator: Adobe Illustrator 27.9.0, SVG Export Plug-In . SVG Version: 6.00 Build 0)  -->
<svg version="1.1" id="Analyze" xmlns="http://www.w3.org/2000/svg" xmlns:xlink="http://www.w3.org/1999/xlink" x="0px" y="0px"
	 width="14px" height="14px" viewBox="0 0 14 14" enable-background="new 0 0 14 14" xml:space="preserve">
<path fill="#36D7E3" d="M11.005,7.481l1,1V13c0,0.552-0.448,1-1,1H1c-0.553,0-1-0.448-1-1V3c0-0.552,0.448-1,1-1h4.137
	C5.054,2.322,4.996,2.653,4.996,3H1v10h10.005V7.481z M13.78,6.72l-2.206-2.205c0.263-0.446,0.425-0.96,0.425-1.515
	c0-1.656-1.344-3-3.001-3C7.341,0,5.996,1.344,5.996,3c0,1.656,1.344,3,3.001,3c0.556,0,1.069-0.161,1.516-0.424l2.206,2.205
	C12.866,7.927,13.057,8,13.25,8s0.384-0.073,0.531-0.22C14.073,7.487,14.073,7.013,13.78,6.72z"/>
</svg>
