<?xml version="1.0" encoding="utf-8"?>
<!-- Generator: Adobe Illustrator 27.9.0, SVG Export Plug-In . SVG Version: 6.00 Build 0)  -->
<svg version="1.1" id="ApplicationServer" xmlns="http://www.w3.org/2000/svg" xmlns:xlink="http://www.w3.org/1999/xlink" x="0px"
	 y="0px" width="14px" height="14px" viewBox="0 0 14 14" enable-background="new 0 0 14 14" xml:space="preserve">
<path fill="#EB8C4A" d="M7,7c0-1.438,0.769-2.69,1.91-3.395C8.495,1.549,6.679,0,4.5,0C2.015,0,0,2.015,0,4.5
	c0,2.179,1.549,3.995,3.605,4.41C4.31,7.769,5.562,7,7,7z M2.5,4.5c0-1.105,0.895-2,2-2c1.104,0,2,0.895,2,2c0,1.105-0.896,2-2,2
	C3.395,6.5,2.5,5.605,2.5,4.5z M7,8c-1.657,0-3,1.343-3,3s1.343,3,3,3c1.657,0,3-1.343,3-3S8.657,8,7,8z M7,12.5
	c-0.828,0-1.5-0.672-1.5-1.5S6.172,9.5,7,9.5c0.828,0,1.5,0.672,1.5,1.5S7.828,12.5,7,12.5z M11,4C9.343,4,8,5.343,8,7
	c0,0.05,0.012,0.097,0.015,0.147c1.387,0.366,2.472,1.452,2.838,2.839C10.903,9.988,10.95,10,11,10c1.657,0,3-1.343,3-3
	S12.657,4,11,4z M11,8.5c-0.828,0-1.5-0.672-1.5-1.5s0.672-1.5,1.5-1.5c0.828,0,1.5,0.672,1.5,1.5S11.828,8.5,11,8.5z"/>
</svg>
