<?xml version="1.0" encoding="utf-8"?>
<!-- Generator: Adobe Illustrator 27.9.0, SVG Export Plug-In . SVG Version: 6.00 Build 0)  -->
<svg version="1.1" id="BIReportGallery" xmlns="http://www.w3.org/2000/svg" xmlns:xlink="http://www.w3.org/1999/xlink" x="0px"
	 y="0px" width="14px" height="14px" viewBox="0 0 14 14" enable-background="new 0 0 14 14" xml:space="preserve">
<path fill="#837CFF" d="M3,12V8h2v4H3z M6,12h2v-2H6V12z M9,9v3h2V9H9z M11,1c1.103,0,2,0.897,2,2h1c0-1.657-1.343-3-3-3
	S8,1.343,8,3h1C9,1.897,9.897,1,11,1z M11,4C9.343,4,8,5.343,8,7h1c0-1.103,0.897-2,2-2s2,0.897,2,2h1C14,5.343,12.657,4,11,4z M7,7
	H0V0h7V7z M1,3h2V1H1V3z M3,6V4H1v2H3z M6,4H4v2h2V4z M6,1H4v2h2V1z M1,8H0v5v1h1h13v-1H1V8z"/>
</svg>
