<?xml version="1.0" encoding="utf-8"?>
<!-- Generator: Adobe Illustrator 27.9.0, SVG Export Plug-In . SVG Version: 6.00 Build 0)  -->
<svg version="1.1" id="BusinessCompany" xmlns="http://www.w3.org/2000/svg" xmlns:xlink="http://www.w3.org/1999/xlink" x="0px"
	 y="0px" width="14px" height="14px" viewBox="0 0 14 14" enable-background="new 0 0 14 14" xml:space="preserve">
<path fill="#837CFF" d="M12,7V0H2v7H0v7h14V7H12z M9,2h2v2H9V2z M9,5h2v2H9V5z M9,8h2v2H9V8z M9,11h2v2H9V11z M6,2h2v2H6V2z M6,5h2
	v2H6V5z M6,8h2v2H6V8z M6,11h2v2H6V11z M3,2h2v2H3V2z M3,5h2v2H3V5z M3,8h2v2H3V8z M3,11h2v2H3V11z"/>
</svg>
