<?xml version="1.0" encoding="utf-8"?>
<!-- Generator: Adobe Illustrator 27.9.0, SVG Export Plug-In . SVG Version: 6.00 Build 0)  -->
<svg version="1.1" id="Collaboration" xmlns="http://www.w3.org/2000/svg" xmlns:xlink="http://www.w3.org/1999/xlink" x="0px"
	 y="0px" width="14px" height="14px" viewBox="0 0 14 14" enable-background="new 0 0 14 14" xml:space="preserve">
<path fill="#33A3FF" d="M2,2.5c-1.105,0-2,0.895-2,2c0,1.105,0.895,2,2,2s2-0.895,2-2C4,3.395,3.105,2.5,2,2.5z M2,5.5
	c-0.551,0-1-0.448-1-1s0.449-1,1-1s1,0.448,1,1S2.551,5.5,2,5.5z M12,6.5c1.105,0,2-0.895,2-2c0-1.105-0.895-2-2-2s-2,0.895-2,2
	C10,5.605,10.895,6.5,12,6.5z M12,3.5c0.551,0,1,0.448,1,1s-0.449,1-1,1s-1-0.448-1-1S11.449,3.5,12,3.5z M2,7.5
	c-1.105,0-2,0.895-2,2c0,1.105,0.895,2,2,2s2-0.895,2-2C4,8.395,3.105,7.5,2,7.5z M2,10.5c-0.551,0-1-0.448-1-1s0.449-1,1-1
	s1,0.448,1,1S2.551,10.5,2,10.5z M7,10c-1.105,0-2,0.895-2,2c0,1.105,0.895,2,2,2s2-0.895,2-2C9,10.895,8.105,10,7,10z M7,13
	c-0.551,0-1-0.448-1-1s0.449-1,1-1s1,0.448,1,1S7.551,13,7,13z M7,0C5.895,0,5,0.895,5,2c0,1.105,0.895,2,2,2s2-0.895,2-2
	C9,0.895,8.105,0,7,0z M7,3C6.449,3,6,2.552,6,2s0.449-1,1-1s1,0.448,1,1S7.551,3,7,3z M7,5C5.895,5,5,5.895,5,7
	c0,1.105,0.895,2,2,2s2-0.895,2-2C9,5.895,8.105,5,7,5z M7,8C6.449,8,6,7.552,6,7s0.449-1,1-1s1,0.448,1,1S7.551,8,7,8z M12,7.5
	c-1.105,0-2,0.895-2,2c0,1.105,0.895,2,2,2s2-0.895,2-2C14,8.395,13.105,7.5,12,7.5z M12,10.5c-0.551,0-1-0.448-1-1s0.449-1,1-1
	s1,0.448,1,1S12.551,10.5,12,10.5z"/>
</svg>
