<?xml version="1.0" encoding="utf-8"?>
<!-- Generator: Adobe Illustrator 27.9.0, SVG Export Plug-In . SVG Version: 6.00 Build 0)  -->
<svg version="1.1" id="CSVFile" xmlns="http://www.w3.org/2000/svg" xmlns:xlink="http://www.w3.org/1999/xlink" x="0px" y="0px"
	 width="14px" height="14px" viewBox="0 0 14 14" enable-background="new 0 0 14 14" xml:space="preserve">
<path fill="#33A3FF" d="M9.989,14H8.986c0,0,1.213-1.867,1.455-4.015C8.339,9.943,7.217,7.366,8.629,5.804
	c1.39-1.539,4.023-0.741,4.332,1.305c0.051,0.107,0.038,0.258,0.038,0.375C12.998,9.883,11.731,12.376,9.989,14z M8,12H2V1h6.586
	L11,3.414V4h1V3.414c0-0.265-0.105-0.52-0.293-0.707L9.293,0.293C9.105,0.105,8.851,0,8.586,0H2C1.448,0,1,0.448,1,1v11
	c0,0.552,0.448,1,1,1h6V12z"/>
</svg>
