<?xml version="1.0" encoding="utf-8"?>
<!-- Generator: Adobe Illustrator 27.9.0, SVG Export Plug-In . SVG Version: 6.00 Build 0)  -->
<svg version="1.1" id="Dashboard" xmlns="http://www.w3.org/2000/svg" xmlns:xlink="http://www.w3.org/1999/xlink" x="0px" y="0px"
	 width="14px" height="14px" viewBox="0 0 14 14" enable-background="new 0 0 14 14" xml:space="preserve">
<path fill="#2AD1D1" d="M13,1v7H6V1H13 M13,0H6C5.448,0,5,0.448,5,1v7c0,0.552,0.448,1,1,1h7c0.552,0,1-0.448,1-1V1
	C14,0.448,13.552,0,13,0L13,0z M4,3V1c0-0.552-0.448-1-1-1H1C0.448,0,0,0.448,0,1v2c0,0.552,0.448,1,1,1h2C3.552,4,4,3.552,4,3z
	 M4,8V6c0-0.552-0.448-1-1-1H1C0.448,5,0,5.448,0,6v2c0,0.552,0.448,1,1,1h2C3.552,9,4,8.552,4,8z M4,13v-2c0-0.552-0.448-1-1-1H1
	c-0.552,0-1,0.448-1,1v2c0,0.552,0.448,1,1,1h2C3.552,14,4,13.552,4,13z M13,11v2H6v-2H13 M13,10H6c-0.552,0-1,0.448-1,1v2
	c0,0.552,0.448,1,1,1h7c0.552,0,1-0.448,1-1v-2C14,10.448,13.552,10,13,10L13,10z M8,3H7v4h1V3z M10,2H9v5h1V2z M12,4h-1v3h1V4z"/>
</svg>
