<?xml version="1.0" encoding="utf-8"?>
<!-- Generator: Adobe Illustrator 27.9.0, SVG Export Plug-In . SVG Version: 6.00 Build 0)  -->
<svg version="1.1" id="DataSetView" xmlns="http://www.w3.org/2000/svg" xmlns:xlink="http://www.w3.org/1999/xlink" x="0px"
	 y="0px" width="14px" height="14px" viewBox="0 0 14 14" enable-background="new 0 0 14 14" xml:space="preserve">
<path fill="#EBCF5D" d="M14,8.346V13c0,0.55-0.45,1-1,1H1c-0.55,0-1-0.45-1-1V1c0-0.55,0.45-1,1-1h6.669
	C6.697,0.436,5.882,1.133,5.321,2H1v3h3.513c0.017,0.343,0.067,0.677,0.15,1H1v3h5.78c0.906,0.626,2.016,1,3.22,1H1v3h12v-3h-3
	C11.578,10,12.997,9.362,14,8.346z M4,3H2v1h2V3z M4,7H2v1h2V7z M4,11H2v1h2V11z M8,11H6v1h2V11z M12,11h-2v1h2V11z M10,0
	C9.448,0,9,0.22,9,0.492v3.444c0,0.272,0.448,0.492,1,0.492s1-0.22,1-0.492V0.492C11,0.22,10.552,0,10,0z M13.685,3.324
	c-0.078-0.23-0.296-0.384-0.542-0.384h-0.076c0.052-0.089,0.079-0.191,0.076-0.297c-0.005-0.183-0.1-0.351-0.254-0.452l-0.857-0.562
	c-0.096-0.063-0.206-0.094-0.317-0.094v0.562l0.857,0.562l-0.626,0.462c0.106,0.118,0.187,0.246,0.244,0.381h0.954l0.286,0.843
	h-1.24c-0.041,0.098-0.096,0.192-0.163,0.281l0.832,0.563L12,6.032l-0.988-0.729c-0.07,0.024-0.141,0.046-0.215,0.065l0.06,0.945
	H9.143l0.06-0.945C9.129,5.349,9.058,5.327,8.988,5.303L8,6.032L7.143,5.189l0.832-0.563C7.907,4.537,7.853,4.443,7.811,4.345h-1.24
	l0.286-0.843h0.954c0.057-0.136,0.138-0.263,0.244-0.381L7.429,2.658l0.857-0.562V1.534c-0.11,0-0.221,0.031-0.317,0.094
	L7.112,2.191C6.957,2.292,6.862,2.46,6.857,2.643C6.854,2.749,6.882,2.851,6.934,2.94H6.857c-0.246,0-0.464,0.155-0.542,0.384
	L6,4.205v1.546c0.107,0.147,0.388,0.281,0.571,0.281h0.076c-0.041,0.07-0.066,0.148-0.074,0.23C6.558,6.428,6.619,6.593,6.739,6.711
	l0.857,0.843C7.707,7.663,7.853,7.719,8,7.719c0.12,0,0.24-0.037,0.342-0.113l0.229-0.169c0,0.143,0.055,0.281,0.155,0.385
	C8.835,7.936,8.985,8,9.143,8h1.714c0.158,0,0.308-0.064,0.417-0.177c0.1-0.104,0.155-0.242,0.155-0.385l0.229,0.169
	C11.759,7.682,11.88,7.719,12,7.719c0.147,0,0.294-0.055,0.404-0.165l0.857-0.843c0.12-0.118,0.181-0.283,0.165-0.449
	c-0.008-0.082-0.033-0.16-0.074-0.23h0.076c0.184,0,0.464-0.135,0.571-0.281V4.205L13.685,3.324z"/>
</svg>
