<?xml version="1.0" encoding="utf-8"?>
<!-- Generator: Adobe Illustrator 27.9.0, SVG Export Plug-In . SVG Version: 6.00 Build 0)  -->
<svg version="1.1" id="ExcelFile" xmlns="http://www.w3.org/2000/svg" xmlns:xlink="http://www.w3.org/1999/xlink" x="0px" y="0px"
	 width="14px" height="14px" viewBox="0 0 14 14" enable-background="new 0 0 14 14" xml:space="preserve">
<path fill="#EB8C4A" d="M10.5,14l-2.474-2.664L6.5,13H4l2.768-3.019L4,7h2.5l1.51,1.626L9.5,7H12L9.268,9.981L13,14H10.5z M3,12H2V1
	h6.586L11,3.414V6h1V3.414c0-0.265-0.105-0.52-0.293-0.707L9.293,0.293C9.105,0.105,8.851,0,8.586,0H2C1.448,0,1,0.448,1,1v11
	c0,0.552,0.448,1,1,1h1V12z"/>
</svg>
