<?xml version="1.0" encoding="utf-8"?>
<!-- Generator: Adobe Illustrator 22.1.0, SVG Export Plug-In . SVG Version: 6.00 Build 0)  -->
<svg version="1.1" id="ExternalFile" xmlns="http://www.w3.org/2000/svg" xmlns:xlink="http://www.w3.org/1999/xlink" x="0px"
	 y="0px" width="14px" height="14px" viewBox="0 0 14 14" enable-background="new 0 0 14 14" xml:space="preserve">
<rect id="svgToolTipPane" x="0" y="0" fill="none" width="14" height="14"/>
<path id="iconColor" d="M12.707,3.707L9.293,0.293C9.105,0.105,8.851,0,8.586,0H2C1.448,0,1,0.448,1,1v12c0,0.552,0.448,1,1,1h10
	c0.552,0,1-0.448,1-1V4.414C13,4.149,12.895,3.895,12.707,3.707z M8,1v4H5V1H8z M8,6v3H5V6H8z M2,1h2v4H2V1z M2,6h2v3H2V6z M2,13v-3
	h2v3H2z M5,13v-3h3v3H5z M12,13H9v-3h3V13z M12,9H9V6h3V9z M12,5H9V1.414l3,3V5z"/>
</svg>
