<?xml version="1.0" encoding="utf-8"?>
<!-- Generator: Adobe Illustrator 27.9.0, SVG Export Plug-In . SVG Version: 6.00 Build 0)  -->
<svg version="1.1" id="GISMember" xmlns="http://www.w3.org/2000/svg" xmlns:xlink="http://www.w3.org/1999/xlink" x="0px" y="0px"
	 width="14px" height="14px" viewBox="0 0 14 14" enable-background="new 0 0 14 14" xml:space="preserve">
<path fill="#33A3FF" d="M7,0C3.134,0,0,3.134,0,7c0,3.866,3.134,7,7,7s7-3.134,7-7C14,3.134,10.866,0,7,0z M12.932,6.144
	c-0.911,0.28-1.896,0.498-2.945,0.642c-0.018-1.103-0.168-2.152-0.429-3.12c0.66-0.174,1.275-0.422,1.855-0.716
	C12.212,3.819,12.756,4.921,12.932,6.144z M10.586,2.201C10.163,2.4,9.721,2.572,9.251,2.698C9.059,2.175,8.843,1.674,8.588,1.22
	C9.32,1.421,9.994,1.757,10.586,2.201z M7,7C6.317,7,5.654,6.961,5.003,6.903C5.012,5.83,5.164,4.805,5.426,3.867
	C5.937,3.947,6.46,4,7,4s1.063-0.053,1.574-0.133C8.836,4.805,8.988,5.83,8.997,6.903C8.346,6.961,7.683,7,7,7z M8.964,7.92
	c-0.059,0.776-0.195,1.517-0.389,2.213C8.063,10.053,7.54,10,7,10s-1.063,0.053-1.574,0.133c-0.194-0.696-0.33-1.438-0.39-2.215
	C5.679,7.967,6.331,8,7,8C7.669,8,8.321,7.969,8.964,7.92z M7.262,1.022C7.65,1.566,7.987,2.2,8.258,2.901C7.848,2.961,7.43,3,7,3
	S6.152,2.961,5.742,2.901C6.013,2.2,6.35,1.566,6.738,1.022C6.826,1.018,6.911,1,7,1S7.174,1.018,7.262,1.022z M5.412,1.22
	C5.157,1.674,4.941,2.175,4.749,2.698C4.279,2.572,3.837,2.4,3.414,2.201C4.006,1.757,4.68,1.421,5.412,1.22z M2.586,2.95
	c0.58,0.294,1.195,0.543,1.855,0.716c-0.261,0.969-0.411,2.017-0.429,3.12C2.964,6.642,1.979,6.424,1.068,6.144
	C1.244,4.921,1.788,3.819,2.586,2.95z M1.014,7.272c0.955,0.244,1.971,0.43,3.036,0.552c0.054,0.879,0.18,1.723,0.392,2.51
	c-0.66,0.174-1.275,0.422-1.855,0.716C1.663,10.045,1.079,8.726,1.014,7.272z M3.414,11.799c0.423-0.199,0.865-0.371,1.335-0.498
	c0.192,0.523,0.408,1.024,0.663,1.478C4.68,12.579,4.006,12.243,3.414,11.799z M6.738,12.978C6.35,12.434,6.013,11.8,5.742,11.099
	C6.152,11.039,6.57,11,7,11s0.848,0.039,1.258,0.099C7.987,11.8,7.65,12.434,7.262,12.978C7.174,12.982,7.089,13,7,13
	S6.826,12.982,6.738,12.978z M8.588,12.78c0.255-0.454,0.471-0.955,0.663-1.478c0.47,0.127,0.912,0.299,1.335,0.498
	C9.994,12.243,9.32,12.579,8.588,12.78z M11.414,11.05c-0.58-0.294-1.195-0.543-1.855-0.716c0.212-0.787,0.338-1.633,0.392-2.513
	c1.066-0.123,2.081-0.311,3.036-0.555C12.922,8.722,12.339,10.043,11.414,11.05z"/>
</svg>
