<?xml version="1.0" encoding="utf-8"?>
<!-- Generator: Adobe Illustrator 27.9.0, SVG Export Plug-In . SVG Version: 6.00 Build 0)  -->
<svg version="1.1" id="HTMLFile" xmlns="http://www.w3.org/2000/svg" xmlns:xlink="http://www.w3.org/1999/xlink" x="0px" y="0px"
	 width="14px" height="14px" viewBox="0 0 14 14" enable-background="new 0 0 14 14" xml:space="preserve">
<path fill="#33A3FF" d="M9,6c-2.18,0-4,1.821-4,4c0,2.179,1.821,4,4,4c2.179,0,4-1.821,4-4C13,7.821,11.18,6,9,6z M9,13.2
	c-2.434,0-3.992-2.728-2.741-4.825c0.098,0.278,0.388,0.417,0.48,0.695C6.866,9.457,6.74,9.322,6.688,9.619
	c-0.085,0.486-0.01,0.346,0.117,0.766c0.102,0.338,0.021,0.56-0.012,0.939c-0.003,0.03,0.122,1.427,0.467,0.867
	c-0.669,0.004,0.389-0.87,0.478-0.937c0.098-0.024,0.197-0.022,0.296,0.005c0.059-0.099,0.13-0.189,0.212-0.27
	c0.107-0.105,0.296-0.158,0.264-0.397c-0.031-0.231-0.285-0.119-0.377-0.254c-0.09-0.133-0.15-0.309-0.243-0.436
	C7.643,9.564,7.286,9.159,6.863,9.276C6.794,9.031,6.532,8.213,6.916,8.221C7.142,8.225,7.077,8.629,7.164,8.61
	c-0.015,0.003,0.198-0.352,0.22-0.375c0.086-0.09,0.242-0.283,0.281-0.301c0.122-0.058,0.238-0.044,0.347-0.095
	c0.126,0.081,0.25,0.076,0.371-0.015c-0.041-0.203,0.055-0.25,0.288-0.139C8.437,7.145,8.088,7.778,7.786,7.351
	C7.499,6.945,8.451,7.042,8.609,6.905c0.114,0.174-0.14,0.252-0.155,0.409c0.559-0.074,0.508-0.598,1.248-0.43
	C9.377,6.952,9.283,6.957,9.421,6.898C9.342,6.905,9.207,7.475,9.27,7.549c0.002,0.002,1.066-0.299,0.856-0.534
	c0.395,0.15,0.761,0.376,1.068,0.668c-0.235,0.048-0.339-0.273-0.613,0.054c-0.11,0.131,0.088,0.371-0.047,0.456
	c-0.276,0.047-0.091-0.509-0.282-0.515c-0.001,0.003-0.21,0.395-0.211,0.391c0.72-0.013-0.486,0.706,0.045,0.798
	c0.264,0.046,0.248-0.297,0.47-0.32c0.211-0.022,0.547,0.274,0.603,0.432c0.078-0.198,0.443,0.069,0.418,0.212
	c-0.031,0.179-0.667-0.171-0.706-0.185c-0.326-0.122-0.41-0.225-0.795-0.053C9.707,9.117,9.528,9.313,9.477,9.684
	c-0.119,0.857,0.513,0.385,0.926,0.753c0.169,0.151,0.151,0.555,0.12,0.769c-0.059,0.401-0.186,0.676-0.193,1.119
	c0.732,0.036,1.078-0.661,1.319-1.242c0.148-0.357,0.586-0.949,0.487-1.323c0.52,0.363-0.446,2.009-0.699,2.309
	C10.833,12.78,9.932,13.2,9,13.2z M4,13H2c-0.552,0-1-0.448-1-1V1c0-0.552,0.448-1,1-1h6.586c0.265,0,0.52,0.105,0.707,0.293
	l2.414,2.414C11.895,2.895,12,3.149,12,3.414V5h-1V3.414L8.586,1H2v11h2V13z"/>
</svg>
