<?xml version="1.0" encoding="utf-8"?>
<!-- Generator: Adobe Illustrator 27.9.0, SVG Export Plug-In . SVG Version: 6.00 Build 0)  -->
<svg version="1.1" id="IndicatorData" xmlns="http://www.w3.org/2000/svg" xmlns:xlink="http://www.w3.org/1999/xlink" x="0px"
	 y="0px" width="14px" height="14px" viewBox="0 0 14 14" enable-background="new 0 0 14 14" xml:space="preserve">
<path fill="#36D7E3" d="M14,7c0,0.552-1.567,1-3.5,1S7,7.552,7,7s1.567-1,3.5-1S14,6.448,14,7z M10.5,9C9.81,9,8.102,8.935,7,8.373
	V10c0,0.552,1.567,1,3.5,1s3.5-0.448,3.5-1V8.373C12.898,8.935,11.19,9,10.5,9z M6,11H1c-0.552,0-1-0.448-1-1V1c0-0.552,0.448-1,1-1
	h9c0.552,0,1,0.448,1,1v4.01L8,5v0.269C7.642,5.357,7.3,5.474,7,5.627V5H4v2h2v1H4v2h2V11z M8,4h2V2H8V4z M4,4h3V2H4V4z M3,8H1v2h2
	V8z M3,5H1v2h2V5z M3,2H1v2h2V2z M10.5,12c-0.69,0-2.398-0.065-3.5-0.627V13c0,0.552,1.567,1,3.5,1s3.5-0.448,3.5-1v-1.627
	C12.898,11.935,11.19,12,10.5,12z"/>
</svg>
