<?xml version="1.0" encoding="utf-8"?>
<!-- Generator: Adobe Illustrator 22.1.0, SVG Export Plug-In . SVG Version: 6.00 Build 0)  -->
<svg version="1.1" id="OrganizationalAnalysisFile" xmlns="http://www.w3.org/2000/svg" xmlns:xlink="http://www.w3.org/1999/xlink"
	 x="0px" y="0px" width="14px" height="14px" viewBox="0 0 14 14" enable-background="new 0 0 14 14" xml:space="preserve">
<rect id="svgToolTipPane" x="0" y="0" fill="none" width="14" height="14"/>
<path id="iconColor" d="M13,13c0,0.552-0.448,1-1,1h-1c-0.552,0-1-0.448-1-1c0-0.552,0.448-1,1-1v-1H7v1c0.552,0,1,0.448,1,1
	c0,0.552-0.448,1-1,1H6c-0.552,0-1-0.448-1-1c0-0.552,0.448-1,1-1v-1c0-0.552,0.448-1,1-1h1.5V9c-0.552,0-1-0.448-1-1
	c0-0.552,0.448-1,1-1h1c0.552,0,1,0.448,1,1c0,0.552-0.448,1-1,1v1H11c0.552,0,1,0.448,1,1v1C12.552,12,13,12.448,13,13z M4,12H2V1
	h6.586L11,3.414V7h1V3.414c0-0.265-0.105-0.52-0.293-0.707L9.293,0.293C9.105,0.105,8.851,0,8.586,0H2C1.448,0,1,0.448,1,1v11
	c0,0.552,0.448,1,1,1h2V12z"/>
</svg>
