<?xml version="1.0" encoding="utf-8"?>
<!-- Generator: Adobe Illustrator 27.9.0, SVG Export Plug-In . SVG Version: 6.00 Build 0)  -->
<svg version="1.1" id="Project" xmlns="http://www.w3.org/2000/svg" xmlns:xlink="http://www.w3.org/1999/xlink" x="0px" y="0px"
	 width="14px" height="14px" viewBox="0 0 14 14" enable-background="new 0 0 14 14" xml:space="preserve">
<g>
	<path fill="#33A3FF" d="M13,4h-1V2c0-0.552-0.448-1-1-1H7c0-0.552-0.448-1-1-1H1C0.448,0,0,0.448,0,1v8c0,0.552,0.448,1,1,1h1v2
		c0,0.552,0.448,1,1,1h4c0,0.552,0.448,1,1,1h5c0.552,0,1-0.448,1-1V5C14,4.448,13.552,4,13,4z M3,12V2h8v10H3z"/>
	<rect x="5" y="4" fill="#33A3FF" width="4" height="1"/>
	<rect x="5" y="6" fill="#33A3FF" width="4" height="1"/>
	<polygon fill="#33A3FF" points="7,9 5,9 5,10 9,10 9,8 7,8 	"/>
</g>
</svg>
