<?xml version="1.0" encoding="utf-8"?>
<!-- Generator: Adobe Illustrator 27.9.0, SVG Export Plug-In . SVG Version: 6.00 Build 0)  -->
<svg version="1.1" id="RCode" xmlns="http://www.w3.org/2000/svg" xmlns:xlink="http://www.w3.org/1999/xlink" x="0px" y="0px"
	 width="14px" height="14px" viewBox="0 0 14 14" enable-background="new 0 0 14 14" xml:space="preserve">
<path fill="#36D7E3" d="M12,7c-0.552,0-1,0.448-1,1s0.448,1,1,1c0.552,0,1-0.448,1-1S12.552,7,12,7z M12,10c-0.552,0-1,0.448-1,1
	c0,0.422,0.323,0.863,0.75,1C11.702,13.044,11,14,11,14h0.5c0,0,1.524-1.219,1.5-3C12.992,10.424,12.6,10,12,10z M6.723,0h1.863
	c0.265,0,0.52,0.105,0.707,0.293l3.414,3.414C12.895,3.895,13,4.149,13,4.414v1.864C12.705,6.106,12.366,6,12,6V4.414L8.586,1H7
	C7,0.634,6.894,0.295,6.723,0z M10.008,14H2c-0.552,0-1-0.448-1-1V8.001h1V13h8.433c-0.093,0.183-0.184,0.331-0.24,0.408
	C10.065,13.583,10.008,13.791,10.008,14z M1.882,4.109v2.892H1v-7h1.93c0.867,0,1.511,0.165,1.928,0.496
	c0.417,0.33,0.625,0.828,0.625,1.491c0,0.929-0.469,1.554-1.403,1.877L6,7.001h-1.03L3.275,4.109H1.882z M1.882,3.362H2.93
	c0.568,0,0.982-0.112,1.245-0.335c0.261-0.223,0.393-0.555,0.393-0.996S4.434,1.269,4.171,1.066
	C3.905,0.863,3.476,0.762,2.883,0.762H1.882V3.362z"/>
</svg>
