<?xml version="1.0" encoding="utf-8"?>
<!-- Generator: Adobe Illustrator 27.9.0, SVG Export Plug-In . SVG Version: 6.00 Build 0)  -->
<svg version="1.1" id="RdataFile" xmlns="http://www.w3.org/2000/svg" xmlns:xlink="http://www.w3.org/1999/xlink" x="0px" y="0px"
	 width="14px" height="14px" viewBox="0 0 14 14" enable-background="new 0 0 14 14" xml:space="preserve">
<path fill="#837CFF" d="M12.586,10.419c0-0.474-0.167-0.829-0.5-1.065C11.753,9.118,11.238,9,10.544,9H9v5h0.705v-2.066h1.115
	L12.176,14H13l-1.536-2.24C12.211,11.529,12.586,11.083,12.586,10.419z M10.544,11.401H9.705V9.544h0.801
	c0.475,0,0.818,0.072,1.031,0.217c0.211,0.145,0.318,0.375,0.318,0.689s-0.105,0.552-0.314,0.711
	C11.33,11.321,10.998,11.401,10.544,11.401z M1,2v7h7V2H1z M4,8H2V6h2V8z M4,5H2V3h2V5z M7,8H5V6h2V8z M7,5H5V3h2V5z M12,3.414V8h-1
	V3.414L8.586,1H1c0-0.552,0.448-1,1-1h6.586c0.265,0,0.52,0.105,0.707,0.293l2.414,2.414C11.895,2.895,12,3.149,12,3.414z M2,12h5v1
	H2c-0.552,0-1-0.448-1-1v-2h1V12z"/>
</svg>
