<?xml version="1.0" encoding="utf-8"?>
<!-- Generator: Adobe Illustrator 22.1.0, SVG Export Plug-In . SVG Version: 6.00 Build 0)  -->
<svg version="1.1" id="ResultComposite" xmlns="http://www.w3.org/2000/svg" xmlns:xlink="http://www.w3.org/1999/xlink" x="0px"
	 y="0px" width="14px" height="14px" viewBox="0 0 14 14" enable-background="new 0 0 14 14" xml:space="preserve">
<path id="svgToolTipPane" fill="none" d="M14,14H0V0h14V14z"/>
<path id="iconColor" d="M0,1v8c0,0.552,0.448,1,1,1h9c0.552,0,1-0.448,1-1V1c0-0.552-0.448-1-1-1H1C0.448,0,0,0.448,0,1z M3,9H1V8h2
	V9z M3,7H1V6h2V7z M3,5H1V4h2V5z M3,3H1V2h2V3z M7,9H4V8h3V9z M7,7H4V6h3V7z M7,5H4V4h3V5z M7,3H4V2h3V3z M10,9H8V8h2V9z M10,7H8V6
	h2V7z M10,5H8V4h2V5z M10,3H8V2h2V3z M13,2h-1v7c0,1.103-0.897,2-2,2H3v1c0,0.552,0.448,1,1,1h9c0.552,0,1-0.448,1-1V3
	C14,2.448,13.552,2,13,2z"/>
</svg>
