<?xml version="1.0" encoding="utf-8"?>
<!-- Generator: Adobe Illustrator 27.9.0, SVG Export Plug-In . SVG Version: 6.00 Build 0)  -->
<svg version="1.1" id="sasCAMktplace" xmlns="http://www.w3.org/2000/svg" xmlns:xlink="http://www.w3.org/1999/xlink" x="0px"
	 y="0px" width="24px" height="24px" viewBox="0 0 24 24" enable-background="new 0 0 24 24" xml:space="preserve">
<path fill="#424242" d="M10.815,21.021c-2.899,0.149-5.798-0.181-8.697-1.019c-2.135-0.617-2.839-3.08-1.257-4.539L7,9V0h5v9
	l0.376,0.396c-0.225,0.254-0.433,0.521-0.617,0.803L11,9.399V1H8v8.399L4.578,13c0,0.783,3.395,1.106,6.198,0.969
	c0.109,1.406,0.709,2.819,1.789,4.129l0.522,0.631c-0.1-0.015-0.2-0.022-0.301-0.022c-0.286,0-0.575,0.061-0.849,0.189
	C11.119,19.28,10.675,20.155,10.815,21.021z M18.985,13.259c-0.35-0.416-0.919-0.414-1.34-0.067
	c-0.423,0.348-0.547,0.925-0.199,1.347c0.001,0.001,1.986,2.389,1.986,2.389c1.343,1.63,0.743,3.639-1.079,4.783
	c-1.605,1.007-4.552,0.649-5.567-1.005c0.787,2.321,3.427,3.84,6.345,3.11c2.531-0.633,5.359-3.886,2.266-7.639L18.985,13.259z
	 M14.105,16.823c-3.093-3.753-0.265-7.006,2.266-7.638c2.918-0.729,5.558,0.788,6.345,3.11c-1.015-1.655-3.962-2.013-5.567-1.005
	c-1.821,1.144-2.422,3.153-1.079,4.783c0,0,0.953,1.145,1.733,2.084l-0.005,0.004c0.127,0.153,0.21,0.253,0.211,0.254
	c0.348,0.423,0.224,0.999-0.199,1.348c-0.42,0.346-0.99,0.349-1.34-0.067l-0.523-0.631l0.007-0.006L14.105,16.823z M23.729,20.376
	c0-0.114-0.067-0.164-0.202-0.164h-0.216v0.577h0.086v-0.251h0.099l0.151,0.251h0.096l-0.162-0.255
	C23.665,20.525,23.729,20.48,23.729,20.376z M23.396,20.465v-0.179h0.118c0.059,0,0.123,0.013,0.123,0.085
	c0,0.088-0.064,0.094-0.138,0.094H23.396z M23.501,20C23.23,20,23,20.212,23,20.5c0,0.289,0.231,0.5,0.501,0.5
	C23.769,21,24,20.789,24,20.5C24,20.212,23.769,20,23.501,20z M23.501,20.918c-0.226,0-0.402-0.178-0.402-0.418
	c0-0.238,0.175-0.416,0.402-0.416c0.222,0,0.399,0.178,0.399,0.416C23.9,20.74,23.723,20.918,23.501,20.918z"/>
</svg>
