<?xml version="1.0" encoding="utf-8"?>
<!-- Generator: Adobe Illustrator 27.9.0, SVG Export Plug-In . SVG Version: 6.00 Build 0)  -->
<svg version="1.1" id="SASCatalog" xmlns="http://www.w3.org/2000/svg" xmlns:xlink="http://www.w3.org/1999/xlink" x="0px" y="0px"
	 width="14px" height="14px" viewBox="0 0 14 14" enable-background="new 0 0 14 14" xml:space="preserve">
<path fill="#EBCF5D" d="M8.351,13H1c-0.55,0-1-0.45-1-1c0,0,0.002-8.993,0.005-9l0.787-1.584C0.919,1.161,1.178,1,1.463,1h4.06
	c0.292,0,0.56,0.165,0.691,0.427L7,3h6c0.552,0,1,0.448,1,1v5.058c-0.286-0.293-0.627-0.528-1-0.707V5H1v7h7.051
	C8.102,12.354,8.202,12.689,8.351,13z M11.5,14c1.381,0,2.5-1.119,2.5-2.5S12.881,9,11.5,9S9,10.119,9,11.5S10.119,14,11.5,14z"/>
</svg>
