<?xml version="1.0" encoding="utf-8"?>
<!-- Generator: Adobe Illustrator 27.9.0, SVG Export Plug-In . SVG Version: 6.00 Build 0)  -->
<svg version="1.1" id="SASTransportFile" xmlns="http://www.w3.org/2000/svg" xmlns:xlink="http://www.w3.org/1999/xlink" x="0px"
	 y="0px" width="14px" height="14px" viewBox="0 0 14 14" enable-background="new 0 0 14 14" xml:space="preserve">
<path fill="#EBCF5D" d="M1,2v7h7V2H1z M4,8H2V6h2V8z M4,5H2V3h2V5z M7,8H5V6h2V8z M7,5H5V3h2V5z M8,11.5C8,10.119,9.119,9,10.5,9
	s2.5,1.119,2.5,2.5S11.881,14,10.5,14S8,12.881,8,11.5z M12,3.414V8h-1V3.414L8.586,1H8H2H1c0-0.552,0.448-1,1-1h6.586
	c0.265,0,0.52,0.105,0.707,0.293l2.414,2.414C11.895,2.895,12,3.149,12,3.414z M2,12h5v1H2c-0.552,0-1-0.448-1-1v-2h1V12z"/>
</svg>
