<?xml version="1.0" encoding="utf-8"?>
<!-- Generator: Adobe Illustrator 26.0.0, SVG Export Plug-In . SVG Version: 6.00 Build 0)  -->
<svg version="1.1" id="Scheduler" xmlns="http://www.w3.org/2000/svg" xmlns:xlink="http://www.w3.org/1999/xlink" x="0px" y="0px"
	 width="14px" height="14px" viewBox="0 0 14 14" enable-background="new 0 0 14 14" xml:space="preserve">
<rect id="svgToolTipPane" fill="none" width="14" height="14"/>
<path id="iconColor" d="M5.1,11H1V4h10v1.1c0.3,0.1,0.7,0.2,1,0.3V1c0-0.6-0.4-1-1-1H1C0.4,0,0,0.4,0,1v10c0,0.6,0.4,1,1,1h4.4
	C5.3,11.7,5.2,11.3,5.1,11z M7,1h3v1H7V1z M2,1h4v1H2V1z M5.4,8C5.3,8.3,5.2,8.7,5.1,9H3V8H5.4z M10,6c-2.2,0-4,1.8-4,4s1.8,4,4,4
	s4-1.8,4-4S12.2,6,10,6z M10,13c-1.7,0-3-1.3-3-3s1.3-3,3-3s3,1.3,3,3S11.7,13,10,13z M11.5,10v1H9V8h1v2H11.5z M6,7H3V6h4
	c0,0,0,0,0,0.1C6.6,6.3,6.3,6.6,6,7z"/>
</svg>
