<?xml version="1.0" encoding="utf-8"?>
<!-- Generator: Adobe Illustrator 22.1.0, SVG Export Plug-In . SVG Version: 6.00 Build 0)  -->
<svg version="1.1" id="UnknownNode" xmlns="http://www.w3.org/2000/svg" xmlns:xlink="http://www.w3.org/1999/xlink" x="0px"
	 y="0px" width="14px" height="14px" viewBox="0 0 14 14" enable-background="new 0 0 14 14" xml:space="preserve">
<rect id="svgToolTipPane" fill="none" width="14" height="14"/>
<path id="iconColor" d="M7.6,7.4L7.6,7.4l2.2,2.8L8.3,11L7,7.8l0,0L5.5,11l-1.3-0.8l2.1-2.8V7.3L3,7.8V6.2l3.3,0.4l0,0L4.2,3.8
	L5.6,3L7,6.2l0,0L8.4,3l1.4,0.8L7.6,6.6l0,0L11,6.2v1.6L7.6,7.4z M14,1v12c0,0.552-0.448,1-1,1H1c-0.552,0-1-0.448-1-1V1
	c0-0.552,0.448-1,1-1h12C13.552,0,14,0.448,14,1z M13,1H1v12h12V1z"/>
</svg>
