<?xml version="1.0" encoding="utf-8"?>
<!-- Generator: Adobe Illustrator 27.9.0, SVG Export Plug-In . SVG Version: 6.00 Build 0)  -->
<svg version="1.1" id="VideoFile" xmlns="http://www.w3.org/2000/svg" xmlns:xlink="http://www.w3.org/1999/xlink" x="0px" y="0px"
	 width="14px" height="14px" viewBox="0 0 14 14" enable-background="new 0 0 14 14" xml:space="preserve">
<path fill="#36D7E3" d="M12,7H6C5.448,7,5,7.448,5,8v5c0,0.552,0.448,1,1,1h6c0.552,0,1-0.448,1-1V8C13,7.448,12.552,7,12,7z M7,13
	H6v-1h1V13z M7,11H6v-1h1V11z M7,9H6V8h1V9z M8,12V9l2,1.5L8,12z M12,13h-1v-1h1V13z M12,11h-1v-1h1V11z M12,9h-1V8h1V9z M12,3.414
	V6h-1V3.414L8.586,1H2v11h1h1v1H3H2c-0.552,0-1-0.448-1-1V1c0-0.552,0.448-1,1-1h6.586c0.265,0,0.52,0.105,0.707,0.293l2.414,2.414
	C11.895,2.895,12,3.149,12,3.414z"/>
</svg>
