<?xml version="1.0" encoding="utf-8"?>
<!-- Generator: Adobe Illustrator 22.1.0, SVG Export Plug-In . SVG Version: 6.00 Build 0)  -->
<svg version="1.1" id="VirtualFolder" xmlns="http://www.w3.org/2000/svg" xmlns:xlink="http://www.w3.org/1999/xlink" x="0px"
	 y="0px" width="14px" height="14px" viewBox="0 0 14 14" enable-background="new 0 0 14 14" xml:space="preserve">
<rect id="svgToolTipPane" fill="none" width="14" height="14"/>
<path id="iconColor" d="M13,3H7L6.213,1.427C6.083,1.165,5.815,1,5.523,1h-4.06C1.178,1,0.918,1.161,0.792,1.416L0.005,3
	C0.002,3.007,0,12,0,12c0,0.55,0.45,1,1,1h12c0.55,0,1-0.45,1-1V4C14,3.448,13.552,3,13,3z M13,12H1c0,0,0.002-7.383,0.004-8.767
	L1.618,2h3.765l0.999,2H13V12z"/>
</svg>
