<?xml version="1.0" encoding="utf-8"?>
<!-- Generator: Adobe Illustrator 27.9.0, SVG Export Plug-In . SVG Version: 6.00 Build 0)  -->
<svg version="1.1" id="VisualStatistics" xmlns="http://www.w3.org/2000/svg" xmlns:xlink="http://www.w3.org/1999/xlink" x="0px"
	 y="0px" width="14px" height="14px" viewBox="0 0 14 14" enable-background="new 0 0 14 14" xml:space="preserve">
<path fill="#837CFF" d="M8.402,1.06C7.999,0.782,7.557,0.556,7.09,0.382C7.679,0.138,8.323,0,9,0c2.761,0,5,2.239,5,5
	c0,1.163-0.414,2.216-1.081,3.06c-0.07-0.442-0.186-0.868-0.347-1.273C12.845,6.25,13,5.644,13,5c0-2.206-1.794-4-4-4
	C8.795,1,8.599,1.031,8.402,1.06z M1.243,7.324C1.095,6.908,1,6.466,1,6c0-2.206,1.794-4,4-4c1.028,0,1.956,0.4,2.665,1.039
	c0.566,0.063,1.108,0.204,1.616,0.414C8.409,1.99,6.827,1,5,1C2.239,1,0,3.239,0,6c0,1.119,0.38,2.141,1.001,2.974
	C1.004,8.401,1.09,7.849,1.243,7.324z M12,9c0,2.761-2.239,5-5,5s-5-2.239-5-5s2.239-5,5-5S12,6.239,12,9z M3,9
	c0,0.623,0.156,1.206,0.411,1.732l1.673-2.51c0.083-0.125,0.218-0.206,0.367-0.22c0.156-0.01,0.297,0.039,0.403,0.144l1.592,1.592
	l2.535-3.38C9.248,5.532,8.19,5,7,5C4.794,5,3,6.794,3,9z M11,9c0-0.636-0.163-1.229-0.428-1.763L7.9,10.8
	c-0.087,0.116-0.22,0.188-0.364,0.199c-0.152,0.009-0.287-0.042-0.389-0.145L5.578,9.285l-1.565,2.348C4.746,12.464,5.807,13,7,13
	C9.206,13,11,11.206,11,9z M6.5,6C6.224,6,6,6.224,6,6.5S6.224,7,6.5,7C6.776,7,7,6.776,7,6.5S6.776,6,6.5,6z M5.5,11
	C5.224,11,5,11.224,5,11.5S5.224,12,5.5,12C5.776,12,6,11.776,6,11.5S5.776,11,5.5,11z M9.5,10C9.224,10,9,10.224,9,10.5
	S9.224,11,9.5,11c0.276,0,0.5-0.224,0.5-0.5S9.776,10,9.5,10z"/>
</svg>
