<?xml version="1.0" encoding="utf-8"?>
<!-- Generator: Adobe Illustrator 27.9.0, SVG Export Plug-In . SVG Version: 6.00 Build 0)  -->
<svg version="1.1" id="WordFile" xmlns="http://www.w3.org/2000/svg" xmlns:xlink="http://www.w3.org/1999/xlink" x="0px" y="0px"
	 width="14px" height="14px" viewBox="0 0 14 14" enable-background="new 0 0 14 14" xml:space="preserve">
<path fill="#33A3FF" d="M8.304,14c-0.153,0-0.278-0.124-0.278-0.277l-0.009-3.26L6.48,13.837C6.435,13.936,6.337,14,6.227,14h-1.02
	c-0.152,0-0.276-0.122-0.278-0.273L4.844,8.729C4.838,8.449,4.82,8.241,4.789,8.111c-0.035-0.15-0.07-0.201-0.081-0.213
	C4.635,7.885,4.523,7.824,4.482,7.763C4.439,7.701,4.38,7.606,4.394,7.532l0.065-0.309C4.484,7.093,4.598,7,4.73,7h2.178
	C6.991,7,7.07,7.038,7.123,7.102c0.053,0.066,0.073,0.15,0.057,0.232l-0.062,0.31c-0.023,0.114-0.115,0.2-0.229,0.219
	C6.819,7.874,6.779,7.888,6.76,7.898C6.713,7.947,6.693,7.984,6.681,8.053C6.668,8.131,6.66,8.202,6.658,8.266
	c0,0-0.023,2.439-0.024,2.508c0.032-0.072,1.642-3.61,1.642-3.61C8.32,7.064,8.419,7,8.528,7h0.931c0.154,0,0.279,0.124,0.279,0.277
	c0,0,0.008,3.533,0.008,3.554c0.066-0.147,0.848-1.839,0.848-1.839c0.12-0.259,0.209-0.465,0.267-0.628
	c0.061-0.171,0.073-0.274,0.073-0.329c0-0.086-0.01-0.123-0.014-0.136c-0.075-0.011-0.197-0.072-0.242-0.134
	c-0.043-0.062-0.115-0.16-0.1-0.233l0.064-0.309C10.669,7.093,10.782,7,10.915,7h1.808c0.083,0,0.162,0.038,0.215,0.102
	c0.053,0.066,0.074,0.15,0.057,0.233L12.93,7.646c-0.022,0.107-0.107,0.192-0.215,0.215c-0.052,0.011-0.098,0.031-0.135,0.061
	c-0.052,0.039-0.1,0.093-0.148,0.162c-0.059,0.085-0.117,0.184-0.174,0.293c-0.06,0.117-2.685,5.467-2.685,5.467
	C9.527,13.939,9.43,14,9.324,14H8.304z M11.707,2.707L9.293,0.293C9.105,0.105,8.851,0,8.586,0H2C1.448,0,1,0.448,1,1v11
	c0,0.552,0.448,1,1,1h2v-1H2V1h6.586L11,3.414V6h1V3.414C12,3.149,11.895,2.895,11.707,2.707z"/>
</svg>
