<?xml version="1.0" encoding="utf-8"?>
<!-- Generator: Adobe Illustrator 27.9.0, SVG Export Plug-In . SVG Version: 6.00 Build 0)  -->
<svg version="1.1" id="WorkflowItem" xmlns="http://www.w3.org/2000/svg" xmlns:xlink="http://www.w3.org/1999/xlink" x="0px"
	 y="0px" width="14px" height="14px" viewBox="0 0 14 14" enable-background="new 0 0 14 14" xml:space="preserve">
<path fill="#837CFF" d="M13,4h-2V3c0-0.552-0.448-1-1-1H8V1c0-0.552-0.448-1-1-1H1C0.448,0,0,0.448,0,1v8c0,0.552,0.448,1,1,1h2v1
	c0,0.552,0.448,1,1,1h2v1c0,0.552,0.448,1,1,1h6c0.552,0,1-0.448,1-1V5C14,4.448,13.552,4,13,4z M13,13H7v-2H4V9H1V1h6v2h3v2h3V13z
	 M4.302,6.64H3.32V3.955l0.01-0.441l0.016-0.482c-0.163,0.163-0.276,0.27-0.339,0.32L2.474,3.781L2,3.19L3.495,2h0.807V6.64z
	 M8.256,8.707H5.012V8.024l1.165-1.177c0.345-0.354,0.57-0.598,0.677-0.735C6.959,5.976,7.035,5.85,7.082,5.733
	c0.046-0.117,0.069-0.237,0.069-0.362c0-0.186-0.052-0.325-0.154-0.416S6.758,4.819,6.586,4.819c-0.18,0-0.354,0.041-0.523,0.124
	c-0.169,0.083-0.346,0.2-0.529,0.352L5,4.664c0.229-0.195,0.417-0.332,0.567-0.413S5.882,4.109,6.06,4.065S6.437,4,6.656,4
	c0.29,0,0.546,0.053,0.768,0.159c0.223,0.105,0.396,0.254,0.518,0.444c0.123,0.19,0.185,0.408,0.185,0.653
	c0,0.214-0.038,0.415-0.113,0.602C7.937,6.046,7.821,6.238,7.664,6.435C7.506,6.631,7.229,6.912,6.831,7.275L6.234,7.837v0.044
	h2.021V8.707z M11.864,8.334c0,0.29-0.088,0.537-0.264,0.74s-0.422,0.343-0.739,0.419v0.019c0.374,0.046,0.658,0.16,0.851,0.341
	C11.904,10.034,12,10.278,12,10.584c0,0.446-0.161,0.794-0.485,1.042C11.191,11.875,10.729,12,10.128,12
	c-0.504,0-0.95-0.083-1.339-0.251v-0.834c0.18,0.091,0.377,0.165,0.593,0.222s0.43,0.086,0.642,0.086
	c0.323,0,0.562-0.055,0.717-0.165c0.154-0.11,0.232-0.287,0.232-0.53c0-0.218-0.09-0.373-0.268-0.463s-0.461-0.136-0.85-0.136H9.503
	V9.175h0.358c0.359,0,0.623-0.047,0.789-0.141s0.249-0.256,0.249-0.484c0-0.351-0.221-0.526-0.66-0.526
	c-0.152,0-0.308,0.025-0.465,0.076C9.616,8.15,9.441,8.238,9.249,8.363L8.795,7.687c0.423-0.305,0.928-0.457,1.514-0.457
	c0.48,0,0.859,0.098,1.138,0.292C11.725,7.716,11.864,7.987,11.864,8.334z"/>
</svg>
