<?xml version="1.0" encoding="utf-8"?>
<!-- Generator: Adobe Illustrator 22.1.0, SVG Export Plug-In . SVG Version: 6.00 Build 0)  -->
<svg version="1.1" id="WorkflowItemType" xmlns="http://www.w3.org/2000/svg" xmlns:xlink="http://www.w3.org/1999/xlink" x="0px"
	 y="0px" width="14px" height="14px" viewBox="0 0 14 14" enable-background="new 0 0 14 14" xml:space="preserve">
<rect id="svgToolTipPane" fill="none" width="14" height="14"/>
<path id="iconColor" d="M13,0H1C0.448,0,0,0.448,0,1v12c0,0.552,0.448,1,1,1h12c0.552,0,1-0.448,1-1V1C14,0.448,13.552,0,13,0z
	 M13,13H1V1h12V13z M9,7V5H7V3H3v4h2v2h2v2h4V7H9z M10,10H8V8H6V6H4V4h2v2h2v2h2V10z"/>
</svg>
