<?xml version="1.0" encoding="utf-8"?>
<!-- Generator: Adobe Illustrator 27.9.0, SVG Export Plug-In . SVG Version: 6.00 Build 0)  -->
<svg version="1.1" id="XMLFile" xmlns="http://www.w3.org/2000/svg" xmlns:xlink="http://www.w3.org/1999/xlink" x="0px" y="0px"
	 width="14px" height="14px" viewBox="0 0 14 14" enable-background="new 0 0 14 14" xml:space="preserve">
<path fill="#EB8C4A" d="M9.5,10c0,0.829-0.672,1.5-1.5,1.5c-0.828,0-1.5-0.671-1.5-1.5S7.172,8.5,8,8.5C8.828,8.5,9.5,9.171,9.5,10z
	 M9.879,13.825L13.159,10L9.879,6.175C9.701,5.966,9.385,5.943,9.175,6.12C8.965,6.3,8.94,6.616,9.121,6.825L11.841,10l-2.721,3.175
	C8.94,13.384,8.965,13.7,9.175,13.88C9.269,13.961,9.385,14,9.5,14C9.641,14,9.781,13.94,9.879,13.825z M6.825,13.88
	c0.21-0.18,0.234-0.496,0.054-0.705L4.159,10l2.721-3.175C7.06,6.616,7.035,6.3,6.825,6.12C6.617,5.941,6.3,5.966,6.121,6.175
	L2.841,10l3.279,3.825C6.219,13.94,6.359,14,6.5,14C6.615,14,6.731,13.96,6.825,13.88z M2,12V5V1h6.586L11,3.414V5h1V3.414
	c0-0.265-0.105-0.52-0.293-0.707L9.293,0.293C9.105,0.105,8.851,0,8.586,0H2C1.448,0,1,0.448,1,1v11c0,0.552,0.448,1,1,1V12z"/>
</svg>
