<?xml version="1.0" encoding="utf-8"?>
<!-- Generator: Adobe Illustrator 27.9.0, SVG Export Plug-In . SVG Version: 6.00 Build 0)  -->
<svg version="1.1" id="ZipFile" xmlns="http://www.w3.org/2000/svg" xmlns:xlink="http://www.w3.org/1999/xlink" x="0px" y="0px"
	 width="14px" height="14px" viewBox="0 0 14 14" enable-background="new 0 0 14 14" xml:space="preserve">
<path fill="#36D7E3" d="M9.5,7H12l1,1H9.5V7z M8.5,7H6L5,8h3.5V7z M11.113,10.641h-0.275v0.848h0.199
	c0.186,0,0.326-0.037,0.418-0.11s0.139-0.181,0.139-0.321c0-0.142-0.039-0.247-0.116-0.314S11.279,10.641,11.113,10.641z M13,9v5H5
	V9H13z M8.221,12.5H6.816l1.367-1.965v-0.391H6.133v0.5h1.332l-1.369,1.963V13h2.125V12.5z M9.744,10.145H8.445v0.344l0.348,0.16
	v1.848l-0.348,0.16V13h1.299v-0.344l-0.348-0.16v-1.848l0.348-0.16V10.145z M12.205,11.035c0-0.296-0.09-0.518-0.271-0.667
	s-0.444-0.224-0.79-0.224h-0.912V13h0.605v-1.016h0.26c0.354,0,0.627-0.081,0.819-0.244S12.205,11.343,12.205,11.035z M4,12H2V1
	h6.586L11,3.414V6h1V3.414c0-0.265-0.105-0.52-0.293-0.707L9.293,0.293C9.105,0.105,8.851,0,8.586,0H2C1.448,0,1,0.448,1,1v11
	c0,0.552,0.448,1,1,1h2V12z"/>
</svg>
