<?xml version="1.0" encoding="utf-8"?>
<!-- Generator: Adobe Illustrator 27.9.0, SVG Export Plug-In . SVG Version: 6.00 Build 0)  -->
<svg version="1.1" id="Application" xmlns="http://www.w3.org/2000/svg" xmlns:xlink="http://www.w3.org/1999/xlink" x="0px"
	 y="0px" width="14px" height="14px" viewBox="0 0 14 14" enable-background="new 0 0 14 14" xml:space="preserve">
<path fill="#33A3FF" d="M13,0H1C0.448,0,0,0.448,0,1v12c0,0.552,0.448,1,1,1h12c0.552,0,1-0.448,1-1V1C14,0.448,13.552,0,13,0z
	 M10,1h2v1h-2V1z M7,1h2v1H7V1z M2,1h4v1H2V1z M13,13H1V4h12V13z M11,7H6V6h5V7z M5,7H3V6h2V7z M11,9H6V8h5V9z M5,9H3V8h2V9z M11,11
	H6v-1h5V11z M5,11H3v-1h2V11z"/>
</svg>
