<?xml version="1.0" encoding="utf-8"?>
<!-- Generator: Adobe Illustrator 27.9.0, SVG Export Plug-In . SVG Version: 6.00 Build 0)  -->
<svg version="1.1" id="AudioFile" xmlns="http://www.w3.org/2000/svg" xmlns:xlink="http://www.w3.org/1999/xlink" x="0px" y="0px"
	 width="14px" height="14px" viewBox="0 0 14 14" enable-background="new 0 0 14 14" xml:space="preserve">
<path fill="#FFCC32" d="M5,9l3-2v6l-3-2H4V9H5z M9.724,11.947C9.776,11.921,11,11.294,11,10S9.776,8.079,9.724,8.053
	C9.478,7.929,9.18,8.029,9.056,8.274S9.029,8.819,9.273,8.945C9.281,8.949,10,9.329,10,10s-0.719,1.051-0.724,1.053
	c-0.247,0.124-0.347,0.424-0.224,0.671C9.141,11.898,9.317,12,9.5,12C9.576,12,9.652,11.983,9.724,11.947z M10.8,13.9
	c0.09-0.067,2.2-1.676,2.2-3.9s-2.11-3.833-2.2-3.9c-0.221-0.166-0.533-0.119-0.699,0.1c-0.166,0.221-0.122,0.534,0.098,0.7
	C10.217,6.913,12,8.28,12,10s-1.783,3.087-1.801,3.101c-0.22,0.166-0.264,0.479-0.098,0.7c0.098,0.13,0.248,0.199,0.4,0.199
	C10.605,14,10.71,13.968,10.8,13.9z M4,12H2V1h6.586L11,3.414V5h1V3.414c0-0.265-0.105-0.52-0.293-0.707L9.293,0.293
	C9.105,0.105,8.851,0,8.586,0H2C1.448,0,1,0.448,1,1v11c0,0.552,0.448,1,1,1h2V12z"/>
</svg>
