<?xml version="1.0" encoding="utf-8"?>
<!-- Generator: Adobe Illustrator 22.1.0, SVG Export Plug-In . SVG Version: 6.00 Build 0)  -->
<svg version="1.1" id="DatabaseCatalog" xmlns="http://www.w3.org/2000/svg" xmlns:xlink="http://www.w3.org/1999/xlink" x="0px"
	 y="0px" width="14px" height="14px" viewBox="0 0 14 14" enable-background="new 0 0 14 14" xml:space="preserve">
<rect id="svgToolTipPane" x="0" fill="none" width="14" height="14"/>
<path id="iconColor" d="M1,1c0-0.55,0.45-1,1-1h8l2.583,0.787C12.838,0.913,13,1.173,13,1.458v4.06c0,0.292-0.166,0.56-0.428,0.691
	L10.999,7L11,12c0,0.552-0.448,1-1,1V2L1,1z M9,13V4c0-0.552-0.448-1-1-1h0v11h0C8.552,14,9,13.552,9,13z M7,3v10
	c0,0.552-0.448,1-1,1l-4-1c-0.552,0-1-0.448-1-1V3c0-0.552,0.448-1,1-1L7,3z M6,4L2,3v9l4,1V4z"/>
</svg>
