<?xml version="1.0" encoding="utf-8"?>
<!-- Generator: Adobe Illustrator 27.9.0, SVG Export Plug-In . SVG Version: 6.00 Build 0)  -->
<svg version="1.1" id="File" xmlns="http://www.w3.org/2000/svg" xmlns:xlink="http://www.w3.org/1999/xlink" x="0px" y="0px"
	 width="14px" height="14px" viewBox="0 0 14 14" enable-background="new 0 0 14 14" xml:space="preserve">
<path fill="#9471FF" d="M12.707,3.707L9.293,0.293C9.105,0.105,8.851,0,8.586,0H2C1.448,0,1,0.448,1,1v12c0,0.552,0.448,1,1,1h10
	c0.552,0,1-0.448,1-1V4.414C13,4.149,12.895,3.895,12.707,3.707z M12,13H2V1h6.586L12,4.414V13z M8,4H4v1h4V4z M10,7H4v1h6V7z
	 M10,10H4v1h6V10z"/>
</svg>
