<?xml version="1.0" encoding="utf-8"?>
<!-- Generator: Adobe Illustrator 27.9.0, SVG Export Plug-In . SVG Version: 6.00 Build 0)  -->
<svg version="1.1" id="Indicator" xmlns="http://www.w3.org/2000/svg" xmlns:xlink="http://www.w3.org/1999/xlink" x="0px" y="0px"
	 width="14px" height="14px" viewBox="0 0 14 14" enable-background="new 0 0 14 14" xml:space="preserve">
<path fill="#FF8224" d="M11,10.889c0,1.105-0.896,2-2,2c-1.104,0-2-0.895-2-2c0-1.104,0.896-2,2-2C10.104,8.889,11,9.784,11,10.889z
	 M5.818,10.889c0-0.698,0.244-1.336,0.641-1.854L5.124,7.727C4.422,8.534,4,9.564,4,10.686C4,11.981,4.559,13.151,5.465,14
	l1.117-1.111C6.112,12.348,5.818,11.655,5.818,10.889z M9,7.777c0.715,0,1.367,0.239,1.898,0.627l1.327-1.297
	C11.354,6.418,10.23,6,9,6C7.769,6,6.645,6.418,5.775,7.107l1.327,1.298C7.634,8.017,8.286,7.777,9,7.777z M12.876,7.727
	l-1.335,1.306c0.307,0.402,0.514,0.877,0.593,1.396l1.412,0.46l-1.412,0.46c-0.087,0.576-0.334,1.093-0.698,1.52l1.126,1.105
	C13.451,13.127,14,11.967,14,10.686C14,9.564,13.578,8.534,12.876,7.727z M3.154,9.667C1.741,9.307,1,8.751,1,8.5V6.881
	c0.695,0.436,1.712,0.774,2.906,0.96c0.205-0.329,0.44-0.637,0.703-0.92C2.244,6.667,1,5.826,1,5.5V3.881C2.075,4.555,3.912,5,6,5
	s3.925-0.445,5-1.119v1.468c0.349,0.124,0.684,0.277,1,0.461V2.5C12,1.119,9.314,0,6,0S0,1.119,0,2.5v6
	c0,0.928,1.216,1.736,3.017,2.167C3.036,10.325,3.08,9.991,3.154,9.667z M6,1c3.281,0,5,1.114,5,1.5S9.281,4,6,4S1,2.886,1,2.5
	S2.719,1,6,1z"/>
</svg>
