<?xml version="1.0" encoding="utf-8"?>
<!-- Generator: Adobe Illustrator 22.1.0, SVG Export Plug-In . SVG Version: 6.00 Build 0)  -->
<svg version="1.1" id="InformationFile" xmlns="http://www.w3.org/2000/svg" xmlns:xlink="http://www.w3.org/1999/xlink" x="0px"
	 y="0px" width="14px" height="14px" viewBox="0 0 14 14" enable-background="new 0 0 14 14" xml:space="preserve">
<rect id="svgToolTipPane" x="0" y="0" fill="none" width="14" height="14"/>
<path id="iconColor" d="M9,6c-2.209,0-4,1.791-4,4c0,2.209,1.791,4,4,4s4-1.791,4-4C13,7.791,11.209,6,9,6z M9.75,13h-1.5v-3h1.5V13
	z M9.75,9h-1.5V7.5h1.5V9z M4,13H2c-0.552,0-1-0.448-1-1V1c0-0.552,0.448-1,1-1h6.586c0.265,0,0.52,0.105,0.707,0.293l2.414,2.414
	C11.895,2.895,12,3.149,12,3.414V5h-1V3.414L8.586,1H2v11h2V13z"/>
</svg>
