<?xml version="1.0" encoding="utf-8"?>
<!-- Generator: Adobe Illustrator 22.1.0, SVG Export Plug-In . SVG Version: 6.00 Build 0)  -->
<svg version="1.1" id="Log" xmlns="http://www.w3.org/2000/svg" xmlns:xlink="http://www.w3.org/1999/xlink" x="0px" y="0px"
	 width="14px" height="14px" viewBox="0 0 14 14" enable-background="new 0 0 14 14" xml:space="preserve">
<rect id="svgToolTipPane" fill="none" width="14" height="14"/>
<path id="iconColor" d="M12,0H2C1.45,0,1,0.45,1,1v12c0,0.55,0.45,1,1,1h10c0.55,0,1-0.45,1-1V1C13,0.45,12.55,0,12,0z M12,13H2V2
	h10V13z M11,7H3V6h8V7z M11,4H3v1h8V4z M11,8H3v1h8V8z M11,10H3v1h8V10z"/>
</svg>
