<?xml version="1.0" encoding="utf-8"?>
<!-- Generator: Adobe Illustrator 22.1.0, SVG Export Plug-In . SVG Version: 6.00 Build 0)  -->
<svg version="1.1" id="myFolder" xmlns="http://www.w3.org/2000/svg" xmlns:xlink="http://www.w3.org/1999/xlink" x="0px" y="0px"
	 width="14px" height="14px" viewBox="0 0 14 14" enable-background="new 0 0 14 14" xml:space="preserve">
<rect id="svgToolTipPane" fill="none" width="14" height="14"/>
<path id="iconColor" d="M8.212,13H1.003c-0.55,0-1-0.45-1-1c0,0-0.005-8.993-0.002-9l0.796-1.584C0.924,1.161,1.184,1,1.468,1h4.058
	c0.292,0,0.56,0.165,0.69,0.427L7.003,3h4.998c0.552,0,1,0.448,1,1v1.597c-0.384-0.48-1-0.597-1-0.597h-11l0.001,7h7
	C8.003,12.274,8.095,12.642,8.212,13z M13.086,10.32C12.623,10.773,12.095,11,11.501,11c-0.598,0-1.125-0.227-1.577-0.68
	c-0.281,0.183-0.505,0.422-0.672,0.719S9.002,11.584,9.002,12s0.491,1.554,0.491,1.554C9.594,13.808,9.746,14,10.002,14H13
	c0.258,0,0.49-0.224,0.581-0.454c0,0,0.419-1.146,0.419-1.546s-0.082-0.664-0.246-0.961S13.367,10.503,13.086,10.32z M11.501,6
	c-0.828,0-1.499,0.895-1.499,2s0.671,2,1.499,2S13,9.105,13,8S12.329,6,11.501,6z"/>
</svg>
