<?xml version="1.0" encoding="utf-8"?>
<!-- Generator: Adobe Illustrator 27.9.0, SVG Export Plug-In . SVG Version: 6.00 Build 0)  -->
<svg version="1.1" id="PDFFile" xmlns="http://www.w3.org/2000/svg" xmlns:xlink="http://www.w3.org/1999/xlink" x="0px" y="0px"
	 width="14px" height="14px" viewBox="0 0 14 14" enable-background="new 0 0 14 14" xml:space="preserve">
<path fill="#FF8224" d="M12.968,9.461c-0.231-1.141-1.702-1.482-3.637-0.873C8.892,8.33,8.461,8.052,8.126,7.807
	C7.807,7.575,7.494,7.29,7.21,6.974c0.096-0.394,0.17-0.695,0.212-0.84c0.157-0.552,0.323-1.748-0.177-2.321
	C6.905,3.422,6.373,3.398,5.786,3.81c-0.333,0.233-0.537,0.576-0.59,0.99c-0.116,0.9,0.513,1.893,0.922,2.429L5.916,8.074
	c-0.158,0.663-0.329,1.382-0.486,2.03c-0.849,0.39-2.565,1.334-1.923,3.167c0.271,0.774,0.815,0.746,0.975,0.72
	c0.832-0.139,1.376-1.59,1.381-1.605c0.076-0.205,0.206-0.685,0.418-1.543c0.382-0.158,0.783-0.304,1.173-0.446
	c0.464-0.168,0.913-0.332,1.305-0.504c0.16-0.071,0.319-0.135,0.476-0.195c0.99,0.549,2.244,1.122,2.988,0.997
	c0.34-0.057,0.525-0.238,0.621-0.379C12.995,10.09,13.037,9.804,12.968,9.461z M4.926,12.022c-0.117,0.317-0.335,0.667-0.497,0.851
	c-0.135-0.429-0.104-0.893,0.661-1.418C5,11.794,4.952,11.952,4.926,12.022z M6.461,5.844C6.457,5.86,6.452,5.876,6.446,5.894
	c-0.194-0.375-0.29-0.714-0.258-0.956c0.017-0.131,0.067-0.218,0.169-0.289c0.076-0.053,0.132-0.083,0.171-0.1
	C6.601,4.767,6.603,5.344,6.461,5.844z M7.112,9.437c-0.177,0.064-0.356,0.13-0.534,0.196l0.01-0.039L6.584,9.596
	C6.687,9.169,6.79,8.733,6.889,8.319l0.045-0.191c0.199,0.185,0.405,0.356,0.613,0.506C7.713,8.755,7.898,8.882,8.094,9.01
	L8.052,9.025L8.114,9.06C7.803,9.187,7.462,9.311,7.112,9.437z M10.736,9.32c0.611-0.064,1.186,0.014,1.252,0.341
	c0.002,0.012,0.004,0.023,0.006,0.034C11.769,9.701,11.338,9.585,10.736,9.32z M2,13c-0.552,0-1-0.448-1-1V1c0-0.552,0.448-1,1-1
	h6.586c0.265,0,0.52,0.105,0.707,0.293l2.414,2.414C11.895,2.895,12,3.149,12,3.414V6h-1V3.414L8.586,1H2v5v6V13z"/>
</svg>
