<?xml version="1.0" encoding="utf-8"?>
<!-- Generator: Adobe Illustrator 27.9.0, SVG Export Plug-In . SVG Version: 6.00 Build 0)  -->
<svg version="1.1" id="PowerpointFile" xmlns="http://www.w3.org/2000/svg" xmlns:xlink="http://www.w3.org/1999/xlink" x="0px"
	 y="0px" width="14px" height="14px" viewBox="0 0 14 14" enable-background="new 0 0 14 14" xml:space="preserve">
<path fill="#FF8224" d="M9,6H6v1.5h1V14h2v-2.5c2.041,0,3.7-1.231,3.7-2.75C12.7,7.231,11.041,6,9,6z M9,10V7.5
	c1.104,0,2,0.56,2,1.25C11,9.44,10.104,10,9,10z M6,13H2c-0.552,0-1-0.448-1-1V1c0-0.552,0.448-1,1-1h6.586
	c0.265,0,0.52,0.105,0.707,0.293l2.414,2.414C11.895,2.895,12,3.149,12,3.414V5h-1V3.414L8.586,1H2v11h4V13z"/>
</svg>
