<?xml version="1.0" encoding="utf-8"?>
<!-- Generator: Adobe Illustrator 27.9.0, SVG Export Plug-In . SVG Version: 6.00 Build 0)  -->
<svg version="1.1" id="RdsFile" xmlns="http://www.w3.org/2000/svg" xmlns:xlink="http://www.w3.org/1999/xlink" x="0px" y="0px"
	 width="14px" height="14px" viewBox="0 0 14 14" enable-background="new 0 0 14 14" xml:space="preserve">
<path fill="#FF8224" d="M2,12h5v1H2c-0.552,0-1-0.448-1-1V1c0-0.552,0.448-1,1-1h6.586c0.265,0,0.52,0.105,0.707,0.293l2.414,2.414
	C11.895,2.895,12,3.149,12,3.414V6h-1V3.414L8.586,1H8H2V12z M13,14h-1.03l-1.695-2.892H8.881V14H8V7h1.93
	c0.867,0,1.511,0.165,1.928,0.496c0.417,0.33,0.625,0.828,0.625,1.491c0,0.929-0.469,1.554-1.403,1.877L13,14z M11.175,10.026
	c0.261-0.223,0.393-0.555,0.393-0.996s-0.134-0.762-0.398-0.965c-0.266-0.203-0.694-0.304-1.288-0.304H8.881v2.6H9.93
	C10.498,10.361,10.912,10.249,11.175,10.026z"/>
</svg>
