<?xml version="1.0" encoding="utf-8"?>
<!-- Generator: Adobe Illustrator 22.1.0, SVG Export Plug-In . SVG Version: 6.00 Build 0)  -->
<svg version="1.1" id="ReferenceDataDomainHierarchy"
	 xmlns="http://www.w3.org/2000/svg" xmlns:xlink="http://www.w3.org/1999/xlink" x="0px" y="0px" width="14px" height="14px"
	 viewBox="0 0 14 14" enable-background="new 0 0 14 14" xml:space="preserve">
<rect id="svgToolTipPane" y="0" fill="none" width="14" height="14"/>
<path id="iconColor" d="M5,7h4v1H5V7z M3,4h4V3H3V4z M9,5H5v1h4V5z M7,9H6.8C6.868,9,6.934,9.012,7,9.02V9z M5.528,12.073
	C5.505,12.05,5.489,12.023,5.468,12H1V1h10v5.925l0.674-1.079c0.091-0.145,0.203-0.27,0.326-0.381V1c0-0.552-0.448-1-1-1H1
	C0.448,0,0,0.448,0,1v11c0,0.552,0.448,1,1,1h5.455L5.528,12.073z M3,10h2.196c0.086-0.171,0.192-0.333,0.332-0.473
	c0.049-0.049,0.105-0.087,0.158-0.13C6.003,9.145,6.389,9,6.8,9H3V10z M9.291,13.995c0.242-0.028,0.459-0.164,0.588-0.371l4-6.4
	c0.234-0.375,0.12-0.868-0.255-1.102c-0.374-0.234-0.868-0.121-1.102,0.255l-3.467,5.547l-1.689-1.689
	c-0.313-0.312-0.819-0.312-1.131,0c-0.313,0.312-0.313,0.819,0,1.131l2.4,2.4C8.785,13.916,8.989,14,9.2,14
	C9.23,14,9.26,13.998,9.291,13.995z"/>
</svg>
