<?xml version="1.0" encoding="utf-8"?>
<!-- Generator: Adobe Illustrator 22.1.0, SVG Export Plug-In . SVG Version: 6.00 Build 0)  -->
<svg version="1.1" id="SASCodePackage" xmlns="http://www.w3.org/2000/svg" xmlns:xlink="http://www.w3.org/1999/xlink" x="0px"
	 y="0px" width="14px" height="14px" viewBox="0 0 14 14" enable-background="new 0 0 14 14" xml:space="preserve">
<rect id="svgToolTipPane" fill="none" width="14" height="14"/>
<path id="iconColor" d="M13,7.999c0,0.552-0.448,1-1,1c-0.552,0-1-0.448-1-1s0.448-1,1-1C12.552,6.999,13,7.447,13,7.999z M12,10
	c-0.552,0-1,0.448-1,1c0,0.422,0.323,0.863,0.75,1C11.702,13.044,11,14,11,14h0.5c0,0,1.524-1.219,1.5-3
	C12.992,10.424,12.6,10,12,10z M12.838,6.189C12.582,6.07,12.3,5.999,12,5.999c-0.069,0-0.134,0.014-0.201,0.02l-0.674-3.292L8,1v5
	l2.545,0.636C10.209,6.994,10,7.471,10,7.999C10,7.999,10,8,10,8H7H2v4h8v1H2c-0.552,0-1-0.448-1-1V7l1.749-4.371
	C2.9,2.249,3.268,2,3.677,2H7V1.001C7,0.294,7.715-0.19,8.371,0.073l3.126,1.726c0.314,0.125,0.543,0.401,0.609,0.732L12.838,6.189z
	 M6,3H3.677l-1.6,4H6V3z"/>
</svg>
