<?xml version="1.0" encoding="utf-8"?>
<!-- Generator: Adobe Illustrator 27.9.0, SVG Export Plug-In . SVG Version: 6.00 Build 0)  -->
<svg version="1.1" id="SourceDatabase" xmlns="http://www.w3.org/2000/svg" xmlns:xlink="http://www.w3.org/1999/xlink" x="0px"
	 y="0px" width="14px" height="14px" viewBox="0 0 14 14" enable-background="new 0 0 14 14" xml:space="preserve">
<path fill="#33A3FF" d="M7,0C3.686,0,1,1.119,1,2.5v9C1,12.881,3.686,14,7,14s6-1.119,6-2.5v-9C13,1.119,10.314,0,7,0z M7,1
	c3.281,0,5,1.114,5,1.5S10.281,4,7,4S2,2.886,2,2.5S3.719,1,7,1z M7,13c-3.281,0-5-1.114-5-1.5V9.881C3.075,10.555,4.912,11,7,11
	s3.925-0.445,5-1.119V11.5C12,11.886,10.281,13,7,13z M7,10c-3.281,0-5-1.114-5-1.5V6.881C3.075,7.555,4.912,8,7,8
	s3.925-0.445,5-1.119V8.5C12,8.886,10.281,10,7,10z M7,7C3.719,7,2,5.886,2,5.5V3.881C3.075,4.555,4.912,5,7,5s3.925-0.445,5-1.119
	V5.5C12,5.886,10.281,7,7,7z"/>
</svg>
