<?xml version="1.0" encoding="utf-8"?>
<!-- Generator: Adobe Illustrator 27.9.0, SVG Export Plug-In . SVG Version: 6.00 Build 0)  -->
<svg version="1.1" id="StabilityMonitoringAnalysis"
	 xmlns="http://www.w3.org/2000/svg" xmlns:xlink="http://www.w3.org/1999/xlink" x="0px" y="0px" width="14px" height="14px"
	 viewBox="0 0 14 14" enable-background="new 0 0 14 14" xml:space="preserve">
<path fill="#FFCC32" d="M7,1C5.342,1,4,2.343,4,4c0,1.657,1.342,3,3,3s3-1.343,3-3C10,2.343,8.658,1,7,1z M7,9
	C3.691,9,1,6.53,1,3.494C1,3.221,1.224,3,1.5,3S2,3.221,2,3.494c0,2.492,2.243,4.519,5,4.519s5-2.027,5-4.519
	C12,3.221,12.224,3,12.5,3S13,3.221,13,3.494C13,6.53,10.309,9,7,9z M4.39,9.526L3,13H1l1.742-4.354
	C3.243,9.004,3.795,9.303,4.39,9.526z M8,9.926V13H6V9.926C6.328,9.97,6.66,10,7,10S7.672,9.97,8,9.926z M11.258,8.646L13,13h-2
	L9.61,9.526C10.205,9.303,10.757,9.004,11.258,8.646z"/>
</svg>
