<?xml version="1.0" encoding="utf-8"?>
<!-- Generator: Adobe Illustrator 22.1.0, SVG Export Plug-In . SVG Version: 6.00 Build 0)  -->
<svg version="1.1" id="Study" xmlns="http://www.w3.org/2000/svg" xmlns:xlink="http://www.w3.org/1999/xlink" x="0px" y="0px"
	 width="14px" height="14px" viewBox="0 0 14 14" enable-background="new 0 0 14 14" xml:space="preserve">
<rect id="svgToolTipPane" y="0" fill="none" width="14" height="14"/>
<path id="iconColor" d="M9,6V1h0.5C9.776,1,10,0.776,10,0.5C10,0.224,9.776,0,9.5,0h-5C4.224,0,4,0.224,4,0.5C4,0.776,4.224,1,4.5,1
	H5v5c0,0-4,4.619-4,6c0,1.381,2.134,2,6,2s6-0.619,6-2C13,10.852,9,6,9,6z M7,13c-4.864,0-5-0.99-5-1
	c0.076-0.684,2.003-3.321,3.756-5.346C5.914,6.473,6,6.24,6,6V1h2v5c0,0.232,0.081,0.457,0.229,0.636
	c1.721,2.089,3.648,4.763,3.775,5.419C11.991,12.055,11.753,13,7,13z M8.726,8.872c0.804,1.049,1.548,2.088,1.971,2.785
	C10.137,11.814,9.042,12,7,12c-2.102,0-3.2-0.196-3.745-0.356c0.388-0.668,1.122-1.698,1.974-2.778C5.795,8.95,6.387,9,7,9
	C7.597,9,8.173,8.953,8.726,8.872z"/>
</svg>
