<?xml version="1.0" encoding="utf-8"?>
<!-- Generator: Adobe Illustrator 22.1.0, SVG Export Plug-In . SVG Version: 6.00 Build 0)  -->
<svg version="1.1" id="User" xmlns="http://www.w3.org/2000/svg" xmlns:xlink="http://www.w3.org/1999/xlink" x="0px" y="0px"
	 width="14px" height="14px" viewBox="0 0 14 14" enable-background="new 0 0 14 14" xml:space="preserve">
<rect id="svgToolTipPane" x="0" y="0" fill="none" width="14" height="14"/>
<path id="iconColor" d="M5,3c0-1.657,0.895-3,2-3s2,1.343,2,3c0,1.657-0.895,3-2,3S5,4.657,5,3z M10.185,6.881
	c-0.361-0.354-0.817-0.607-1.319-0.75C8.356,6.669,7.715,7,7,7S5.644,6.669,5.134,6.131c-0.502,0.143-0.958,0.396-1.319,0.75
	C3.063,7.617,2.846,8.732,3.104,9.742l0.753,3.854C3.903,13.83,4.108,14,4.348,14h5.305c0.239,0,0.445-0.169,0.491-0.404
	l0.753-3.854C11.154,8.732,10.937,7.617,10.185,6.881z"/>
</svg>
