<?xml version="1.0" encoding="utf-8"?>
<!-- Generator: Adobe Illustrator 27.9.0, SVG Export Plug-In . SVG Version: 6.00 Build 0)  -->
<svg version="1.1" id="WebFunnel" xmlns="http://www.w3.org/2000/svg" xmlns:xlink="http://www.w3.org/1999/xlink" x="0px" y="0px"
	 width="14px" height="14px" viewBox="0 0 14 14" enable-background="new 0 0 14 14" xml:space="preserve">
<path fill="#FFCC32" d="M7,0C3.686,0,1,0.895,1,2c0,0.185,5,12,5,12h2c0,0,5-11.815,5-12C13,0.895,10.314,0,7,0z M7,1
	c2.806,0,4.49,0.649,4.93,1.017C11.841,2.241,11.702,2.583,11.53,3H2.47C2.298,2.583,2.159,2.241,2.07,2.017C2.51,1.649,4.194,1,7,1
	z M5,9.057C4.706,8.358,4.415,7.667,4.136,7h5.729C9.585,7.667,9.294,8.358,9,9.057V9H5V9.057z M3.717,6
	C3.411,5.268,3.129,4.593,2.883,4h8.234c-0.246,0.593-0.528,1.268-0.834,2H3.717z M7.337,13H6.663c-0.399-0.943-0.831-1.967-1.266-3
	h3.206C8.168,11.033,7.735,12.057,7.337,13z"/>
</svg>
